<?xml version="1.0" encoding="UTF-8"?>
<svg width="50px" height="50px" viewBox="0 0 1486 1500" version="1.1" xmlns="http://www.w3.org/2000/svg" xmlns:xlink="http://www.w3.org/1999/xlink">
    <title>icon/colour/kurator-icon-colour</title>
    <defs>
        <linearGradient x1="91.7140734%" y1="82.691698%" x2="-2.10569516%" y2="19.1880561%" id="linearGradient-1">
            <stop stop-color="#3E73FF" offset="0%"></stop>
            <stop stop-color="#3ED1FF" offset="100%"></stop>
        </linearGradient>
    </defs>
    <g id="icon/colour/kurator-icon-colour" stroke="none" stroke-width="1" fill="none" fill-rule="evenodd">
        <g id="编组" transform="translate(10.000000, 141.338884)" fill-rule="nonzero">
            <path d="M1040.77627,-2.84217094e-14 C1082.85983,-2.84217094e-14 1116.9753,34.1154678 1116.9753,76.1990301 C1116.9753,118.282592 1082.85983,152.39806 1040.77627,152.39806 C1038.27001,152.39806 1035.79201,152.277062 1033.3478,152.04059 L1011.57821,190.08604 C1079.54778,254.712422 1121.5442,327.575276 1128.90437,424.111707 L1129.15822,428.010175 L1130.52843,428.040302 C1314.29683,431.210026 1465.84671,556.458624 1465.84671,725.738974 C1465.84671,895.019324 1319.91282,1028.78785 1136.56737,1035.2846 L1130.57561,1035.44528 L1124.52358,1035.4991 L725.530713,1035.4991 C708.659745,1035.4991 694.983123,1021.82247 694.983123,1004.95151 C694.983123,1004.22484 695.008496,1003.5041 695.058404,1002.79012 C694.71802,998.150832 695.433321,993.384365 697.320293,988.858115 L698.438552,986.468697 L791.388309,820.377277 C782.253601,807.810939 776.865708,792.345111 776.865708,775.620874 C776.865708,733.537312 810.981176,699.421844 853.064738,699.421844 C895.1483,699.421844 929.263768,733.537312 929.263768,775.620874 C929.263768,817.704436 895.1483,851.819904 853.064738,851.819904 C850.02074,851.819904 847.01843,851.641413 844.067704,851.294328 L775.17,974.40303 L1124.24554,974.405183 L1129.74117,974.35643 C1282.32106,971.576793 1404.80328,869.408485 1404.80328,731.743824 C1404.80328,594.079163 1279.31778,489.08373 1124.52358,489.08373 C1116.9007,489.08373 1109.37849,489.387333 1101.98143,489.993537 C1084.91723,491.391984 1070.21366,478.535377 1069.01729,461.763763 L1068.93946,459.342302 L1068.97271,454.507887 C1068.97271,368.725459 1036.68068,302.734078 980.179087,244.963976 L486.928024,1107.03019 C499.064574,1120.52698 506.449581,1138.3821 506.449581,1157.96209 C506.449581,1200.04565 472.334113,1234.16112 430.250551,1234.16112 C388.166988,1234.16112 354.05152,1200.04565 354.05152,1157.96209 C354.05152,1115.87852 388.166988,1081.76306 430.250551,1081.76306 C430.517748,1081.76306 430.784624,1081.76443 431.051172,1081.76717 L457.525,1035.49903 L341.374883,1035.4991 C152.838741,1035.4991 1.12156574e-13,907.638585 1.12156574e-13,731.743824 C1.12156574e-13,555.849063 146.404154,434.508488 329.390269,428.194991 L336.701381,428.010175 L337.147004,421.937983 C353.539603,219.998481 521.012428,79.5819897 726.382147,76.2522327 L732.94923,76.1990301 C760.175544,76.1990301 787.065821,78.9434547 813.326525,84.3438175 C816.880528,84.8421879 820.406113,85.979935 823.740684,87.8045699 C823.896853,87.8900232 824.051978,87.9766416 824.206056,88.0644085 C835.531701,94.4364683 841.934897,107.629599 839.102126,121.015864 C838.223604,125.167323 836.540447,128.941949 834.250364,132.211094 L567.680817,614.90025 C577.085405,627.573861 582.648611,643.268653 582.648611,660.262801 C582.648611,702.346364 548.533143,736.461831 506.449581,736.461831 C464.366018,736.461831 430.250551,702.346364 430.250551,660.262801 C430.250551,618.179239 464.366018,584.063771 506.449581,584.063771 C509.228671,584.063771 511.973013,584.212547 514.675076,584.502568 L761.012328,138.447678 C751.72138,137.680465 742.361803,137.294209 732.94923,137.294209 C549.364075,137.294209 400.165139,265.709306 396.977204,448.348191 L396.925145,454.316215 L396.956655,459.338021 C397.068994,477.241586 381.830101,491.403126 363.982775,489.980726 C356.493767,489.383866 348.954157,489.08373 341.374883,489.08373 C186.580677,489.08373 61.0951788,594.079163 61.0951788,731.743824 C61.0951788,869.408485 183.610711,971.412014 335.859142,974.350727 L341.374883,974.403918 L492.482,974.40303 L980.062656,122.250982 C970.344915,109.459191 964.577235,93.5026675 964.577235,76.1990301 C964.577235,34.1154678 998.692703,-2.84217094e-14 1040.77627,-2.84217094e-14 Z" id="形状结合" fill="url(#linearGradient-1)"></path>
            <circle id="椭圆形" fill="#1DD6FF" cx="426.141251" cy="778.880407" r="49.863604"></circle>
            <circle id="椭圆形" fill="#1DD6FF" cx="366.049166" cy="873.668314" r="31.4420281"></circle>
            <circle id="椭圆形" fill="#1DD6FF" transform="translate(934.093526, 627.407998) scale(-1, -1) translate(-934.093526, -627.407998) " cx="934.093526" cy="627.407998" r="49.863604"></circle>
            <circle id="椭圆形" fill="#1DD6FF" transform="translate(983.957130, 530.028211) scale(-1, -1) translate(-983.957130, -530.028211) " cx="983.95713" cy="530.028211" r="31.4420281"></circle>
        </g>
    </g>
</svg>